<svg xmlns="http://www.w3.org/2000/svg" version="1.1" xmlns:xlink="http://www.w3.org/1999/xlink" xmlns:svgjs="http://svgjs.com/svgjs" height="74.68748801413368" width="295.30999755859375"><defs id="SvgjsDefs1984"></defs><g id="SvgjsG1985" rel="mainfill" name="main_text" xmlns:name="main_text" transform="translate(79.69000005722046,-184.922209056898)" fill="#563979"><path d="M2.31 216.85C2.31 230.87 7.01 240.73 20.77 240.73C31.48 240.73 36.31 233.72 37.63 226.57C38.16 223.80 36.51 222.67 33.40 222.67C30.76 222.74 29.30 223.53 28.71 225.51C27.58 229.48 25.99 232.92 20.77 232.92C12.57 232.99 11.38 223.99 11.38 216.85C11.38 209.64 12.43 200.71 20.77 200.71C25.86 200.71 27.58 203.29 28.57 208.05C29.10 210.43 30.76 210.96 33.27 210.90C35.58 210.90 37.70 209.77 37.50 207.72C36.64 199.39 31.81 192.97 21.17 192.97C7.14 192.97 2.31 202.76 2.31 216.85ZM52.98 208.25C52.98 205.74 50.73 205.08 48.55 205.08C46.30 205.08 44.12 205.74 44.12 208.25L44.12 237.42C44.12 239.93 46.30 240.60 48.55 240.60C50.73 240.60 52.98 239.93 52.98 237.42ZM48.55 193.24C44.71 193.24 43.72 194.96 43.72 197.60C43.72 200.18 44.45 202.23 48.55 202.23C52.58 202.23 53.38 200.18 53.38 197.60C53.38 194.96 52.32 193.24 48.55 193.24ZM63.96 199.85L63.96 205.74L61.84 205.74C59.33 205.74 58.67 207.52 58.67 209.31C58.67 211.10 59.33 212.88 61.84 212.88L63.96 212.88L63.96 228.76C63.96 235.83 66.67 240.60 75.40 240.60C76.99 240.60 78.77 240.40 80.03 239.87C81.62 239.14 82.02 237.82 82.02 236.16C82.02 233.52 81.16 232.06 78.25 232.39C74.21 232.86 72.82 231.27 72.82 228.23L72.82 212.88L76.53 212.88C79.04 212.88 79.70 211.10 79.70 209.31C79.70 207.52 79.04 205.74 76.53 205.74L72.82 205.74L72.82 199.85C72.82 197.34 70.64 196.68 68.39 196.68C66.21 196.68 63.96 197.34 63.96 199.85ZM113.30 209.97C114.36 206.93 113.57 205.67 110.72 205.41C108.41 205.14 106.09 205.21 105.43 207.26L99.21 225.45L92.66 207.26C91.94 205.21 89.62 205.14 87.31 205.41C84.46 205.67 83.34 207.13 84.46 210.17L95.05 237.75L94.05 240.66C93.39 242.58 91.47 243.77 89.42 243.51C86.71 243.17 85.79 244.70 85.79 247.21C85.79 249.39 86.45 250.98 88.50 251.31C94.65 252.30 99.08 250.45 101.20 244.37ZM124.02 230.67C120.05 230.67 119.06 232.59 119.06 235.63C119.06 238.74 119.85 240.86 124.02 240.86C128.12 240.86 129.04 238.74 129.04 235.63C129.04 232.59 128.12 230.67 124.02 230.67ZM146.90 208.25C146.90 205.74 144.65 205.08 142.47 205.08C140.22 205.08 138.04 205.74 138.04 208.25L138.04 237.42C138.04 239.93 140.22 240.60 142.47 240.60C144.65 240.60 146.90 239.93 146.90 237.42ZM142.47 193.24C138.63 193.24 137.64 194.96 137.64 197.60C137.64 200.18 138.37 202.23 142.47 202.23C146.50 202.23 147.30 200.18 147.30 197.60C147.30 194.96 146.24 193.24 142.47 193.24ZM157.09 227.96C154.04 228.49 153.38 230.48 154.37 232.86C156.76 238.74 162.18 240.86 168.13 240.86C175.01 240.86 181.36 236.96 181.36 229.29C181.36 221.94 175.61 219.76 168.93 218.50C167.01 218.17 162.38 217.45 162.38 214.67C162.38 212.55 164.36 211.69 167.01 211.69C169.12 211.69 170.51 212.68 171.64 214.34C173.03 216.32 175.41 216.19 176.93 215.99C179.38 215.66 180.37 214.60 179.57 212.22C177.72 206.86 172.70 204.81 167.07 204.81C160.72 204.81 154.11 208.45 154.11 215.40C154.11 222.41 159.86 224.66 165.55 225.85C170.45 226.84 172.89 227.57 172.89 230.14C172.76 232.66 170.18 233.78 168.07 233.78C165.42 233.78 163.17 232.72 161.78 230.01C161.12 228.62 159.86 227.57 157.09 227.96ZM185.33 222.87C185.33 233.32 189.30 240.66 200.48 240.66C211.65 240.66 215.62 233.32 215.62 222.87C215.62 212.42 211.65 205.08 200.48 205.08C189.30 205.08 185.33 212.42 185.33 222.87ZM207.09 222.87C207.09 227.76 206.30 233.85 200.48 233.85C194.72 233.85 193.93 227.76 193.93 222.87C193.93 217.97 194.59 211.89 200.48 211.89C206.43 211.89 207.09 217.97 207.09 222.87Z" fill="#563979" style="fill: rgb(86, 57, 121);"></path></g><g id="SvgjsG1986" rel="mainfill" name="symbol" xmlns:name="symbol_mainfill" transform="translate(-6.257817761501045,-2.612062539081394) scale(0.79514839294772)" fill="#563979"><g fill="#563979"><path fill="#563979" d="M66.018,82.742l0.174-0.1c-0.064-0.033-0.121-0.071-0.174-0.12V82.742z" style="fill: rgb(86, 57, 121);"></path><path d="M52.426,46.137l3.178-1.896c0.234-0.141,0.428-0.481,0.428-0.755v-4.146c0-0.274-0.193-0.383-0.428-0.243l-3.178,1.897   c-0.234,0.141-0.428,0.48-0.428,0.755v4.146C51.998,46.168,52.191,46.278,52.426,46.137z" fill="#563979" style="fill: rgb(86, 57, 121);"></path><path d="M52.426,55.803l3.178-1.897c0.234-0.141,0.428-0.48,0.428-0.755v-4.146c0-0.273-0.193-0.383-0.428-0.242l-3.178,1.898   c-0.234,0.14-0.428,0.479-0.428,0.753v4.147C51.998,55.834,52.191,55.943,52.426,55.803z" fill="#563979" style="fill: rgb(86, 57, 121);"></path><path d="M52.426,65.469l3.178-1.898c0.234-0.14,0.428-0.479,0.428-0.754v-4.145c0-0.275-0.193-0.385-0.428-0.244l-3.178,1.898   c-0.234,0.141-0.428,0.479-0.428,0.753v4.146C51.998,65.499,52.191,65.609,52.426,65.469z" fill="#563979" style="fill: rgb(86, 57, 121);"></path><path d="M52.426,75.135l3.178-1.898c0.234-0.141,0.428-0.479,0.428-0.753v-4.147c0-0.274-0.193-0.383-0.428-0.242l-3.178,1.897   c-0.234,0.141-0.428,0.48-0.428,0.754v4.146C51.998,75.165,52.191,75.275,52.426,75.135z" fill="#563979" style="fill: rgb(86, 57, 121);"></path><path d="M26.135,72.448l3.175-1.896c0.235-0.142,0.428-0.48,0.428-0.755v-4.146c0-0.274-0.193-0.384-0.428-0.243l-3.175,1.897   c-0.235,0.141-0.428,0.48-0.428,0.754v4.146C25.708,72.481,25.9,72.59,26.135,72.448z" fill="#563979" style="fill: rgb(86, 57, 121);"></path><path d="M55.604,82.902c0.234-0.141,0.428-0.481,0.428-0.755v-4.146c0-0.274-0.193-0.383-0.428-0.242l-3.178,1.896   c-0.234,0.141-0.428,0.481-0.428,0.755v4.146c0,0.275,0.193,0.383,0.428,0.242L55.604,82.902z" fill="#563979" style="fill: rgb(86, 57, 121);"></path><path d="M81.783,53.818l-3.176,1.897c-0.236,0.142-0.428,0.48-0.428,0.756v4.146c0,0.273,0.191,0.383,0.428,0.241l3.176-1.897   c0.234-0.14,0.428-0.479,0.428-0.754v-4.146C82.211,53.787,82.018,53.678,81.783,53.818z" fill="#563979" style="fill: rgb(86, 57, 121);"></path><path d="M81.783,63.484l-3.176,1.898c-0.236,0.14-0.428,0.479-0.428,0.754v4.146c0,0.273,0.191,0.382,0.428,0.242l3.176-1.897   c0.234-0.142,0.428-0.48,0.428-0.755v-4.146C82.211,63.453,82.018,63.343,81.783,63.484z" fill="#563979" style="fill: rgb(86, 57, 121);"></path><path d="M87.037,22.986L55.094,4.543C53.688,3.732,51.881,3.285,50,3.285c-1.879,0-3.688,0.447-5.093,1.258L12.964,22.986   c-2.904,1.676-5.094,5.468-5.094,8.822v36.885c0,3.352,2.19,7.145,5.094,8.82l31.943,18.443c1.405,0.812,3.213,1.258,5.093,1.258   c1.881,0,3.688-0.446,5.094-1.258l31.943-18.443c2.902-1.676,5.094-5.469,5.094-8.82V31.808   C92.131,28.454,89.939,24.662,87.037,22.986z M33.953,82.725L15.955,72.333c-1.062-0.612-2.102-2.415-2.102-3.64V59.3l10.002-5.775   c0.029-0.002,0.065-0.002,0.094,0L33.953,59.3V82.725z M60.035,86.197l-7.598,4.386l-0.336,0.194   c-0.494,0.284-1.279,0.455-2.102,0.455c-0.822,0-1.607-0.171-2.102-0.455l-0.335-0.194l-7.628-4.403V35.184   c0.013-0.027,0.031-0.058,0.047-0.082l7.597-4.386l0.852-2.152l0.959-2.429c-0.86-0.261-1.487-1.06-1.487-2.006   c0-1.159,0.939-2.097,2.096-2.097c1.158,0,2.098,0.938,2.098,2.097c0,0.946-0.627,1.745-1.488,2.006l0.961,2.429l0.861,2.176   l7.557,4.363c0.018,0.024,0.035,0.055,0.047,0.082V86.197z M86.148,68.693c0,1.225-1.041,3.027-2.102,3.64l-17.855,10.31   l-0.174,0.1v-0.22V49.487l10.004-5.775c0.029-0.003,0.064-0.003,0.094,0l10.033,5.793V68.693z M86.148,42.598l-7.146-4.126   c-1.729-0.997-4.141-0.997-5.869,0l-7.115,4.108v-7.515c0-1.995-1.207-4.084-2.936-5.083l-5.463-3.155   c0.303-0.857,0.461-1.765,0.461-2.698c0-4.456-3.625-8.08-8.08-8.08s-8.079,3.624-8.079,8.08c0,0.927,0.156,1.83,0.457,2.683   l-5.49,3.169c-1.728,0.999-2.935,3.088-2.935,5.083v17.329l-7.116-4.108c-1.728-0.998-4.141-0.998-5.869,0l-7.116,4.108V31.808   c0-1.226,1.041-3.029,2.102-3.642L47.898,9.724c0.495-0.286,1.28-0.456,2.102-0.456c0.822,0,1.607,0.17,2.102,0.456l31.945,18.443   c1.061,0.613,2.102,2.416,2.102,3.642V42.598z" fill="#563979" style="fill: rgb(86, 57, 121);"></path></g></g></svg>