<svg xmlns="http://www.w3.org/2000/svg" version="1.1" xmlns:xlink="http://www.w3.org/1999/xlink" xmlns:svgjs="http://svgjs.com/svgjs" height="32.87514762878418" width="115.44135513305665"><defs id="SvgjsDefs1411"></defs><g id="SvgjsG1412" rel="mainfill" name="main_text" xmlns:name="main_text" transform="translate(43.721350574493414,-217.66465244293212)" fill="#ffffff"><path d="M0.77 232.30C0.77 236.96 2.33 240.24 6.91 240.24C10.47 240.24 12.08 237.91 12.52 235.53C12.69 234.61 12.14 234.24 11.11 234.24C10.23 234.26 9.75 234.52 9.55 235.18C9.17 236.50 8.65 237.65 6.91 237.65C4.18 237.67 3.78 234.68 3.78 232.30C3.78 229.90 4.14 226.93 6.91 226.93C8.60 226.93 9.17 227.79 9.50 229.37C9.68 230.17 10.23 230.34 11.07 230.32C11.84 230.32 12.54 229.95 12.47 229.26C12.19 226.49 10.58 224.36 7.04 224.36C2.38 224.36 0.77 227.61 0.77 232.30ZM17.62 229.44C17.62 228.60 16.87 228.38 16.15 228.38C15.40 228.38 14.67 228.60 14.67 229.44L14.67 239.14C14.67 239.98 15.40 240.20 16.15 240.20C16.87 240.20 17.62 239.98 17.62 239.14ZM16.15 224.45C14.87 224.45 14.54 225.02 14.54 225.90C14.54 226.76 14.78 227.44 16.15 227.44C17.49 227.44 17.75 226.76 17.75 225.90C17.75 225.02 17.40 224.45 16.15 224.45ZM21.27 226.65L21.27 228.60L20.57 228.60C19.73 228.60 19.51 229.20 19.51 229.79C19.51 230.39 19.73 230.98 20.57 230.98L21.27 230.98L21.27 236.26C21.27 238.61 22.18 240.20 25.08 240.20C25.61 240.20 26.20 240.13 26.62 239.96C27.15 239.71 27.28 239.27 27.28 238.72C27.28 237.84 26.99 237.36 26.03 237.47C24.68 237.62 24.22 237.10 24.22 236.08L24.22 230.98L25.45 230.98C26.29 230.98 26.51 230.39 26.51 229.79C26.51 229.20 26.29 228.60 25.45 228.60L24.22 228.60L24.22 226.65C24.22 225.81 23.50 225.59 22.75 225.59C22.02 225.59 21.27 225.81 21.27 226.65ZM37.69 230.01C38.04 229 37.77 228.58 36.83 228.49C36.06 228.41 35.29 228.43 35.07 229.11L33 235.16L30.82 229.11C30.58 228.43 29.81 228.41 29.04 228.49C28.09 228.58 27.72 229.07 28.09 230.08L31.61 239.25L31.28 240.22C31.06 240.86 30.43 241.25 29.74 241.17C28.84 241.06 28.53 241.56 28.53 242.40C28.53 243.12 28.75 243.65 29.44 243.76C31.48 244.09 32.96 243.48 33.66 241.45ZM41.25 236.90C39.93 236.90 39.60 237.54 39.60 238.55C39.60 239.58 39.86 240.29 41.25 240.29C42.61 240.29 42.92 239.58 42.92 238.55C42.92 237.54 42.61 236.90 41.25 236.90ZM48.86 229.44C48.86 228.60 48.11 228.38 47.39 228.38C46.64 228.38 45.91 228.60 45.91 229.44L45.91 239.14C45.91 239.98 46.64 240.20 47.39 240.20C48.11 240.20 48.86 239.98 48.86 239.14ZM47.39 224.45C46.11 224.45 45.78 225.02 45.78 225.90C45.78 226.76 46.02 227.44 47.39 227.44C48.73 227.44 48.99 226.76 48.99 225.90C48.99 225.02 48.64 224.45 47.39 224.45ZM52.25 236.00C51.24 236.17 51.02 236.83 51.35 237.62C52.14 239.58 53.94 240.29 55.92 240.29C58.21 240.29 60.32 238.99 60.32 236.44C60.32 233.99 58.41 233.27 56.19 232.85C55.55 232.74 54.01 232.50 54.01 231.57C54.01 230.87 54.67 230.58 55.55 230.58C56.25 230.58 56.72 230.91 57.09 231.46C57.55 232.12 58.34 232.08 58.85 232.01C59.66 231.90 59.99 231.55 59.73 230.76C59.11 228.98 57.44 228.30 55.57 228.30C53.46 228.30 51.26 229.51 51.26 231.82C51.26 234.15 53.17 234.90 55.07 235.29C56.69 235.62 57.51 235.86 57.51 236.72C57.46 237.56 56.61 237.93 55.90 237.93C55.02 237.93 54.27 237.58 53.81 236.68C53.59 236.22 53.17 235.86 52.25 236.00ZM61.64 234.30C61.64 237.78 62.96 240.22 66.68 240.22C70.40 240.22 71.72 237.78 71.72 234.30C71.72 230.83 70.40 228.38 66.68 228.38C62.96 228.38 61.64 230.83 61.64 234.30ZM68.88 234.30C68.88 235.93 68.62 237.95 66.68 237.95C64.77 237.95 64.50 235.93 64.50 234.30C64.50 232.67 64.72 230.65 66.68 230.65C68.66 230.65 68.88 232.67 68.88 234.30Z" fill="#ffffff" style="fill: rgb(255, 255, 255);"></path></g><g id="SvgjsG1413" rel="mainfill" name="symbol" xmlns:name="symbol_mainfill" transform="translate(-2.754499959945675,-1.1497500300407408) scale(0.35)" fill="#ffffff"><g fill="#ffffff"><path fill="#ffffff" d="M66.018,82.742l0.174-0.1c-0.064-0.033-0.121-0.071-0.174-0.12V82.742z" style="fill: rgb(255, 255, 255);"></path><path d="M52.426,46.137l3.178-1.896c0.234-0.141,0.428-0.481,0.428-0.755v-4.146c0-0.274-0.193-0.383-0.428-0.243l-3.178,1.897   c-0.234,0.141-0.428,0.48-0.428,0.755v4.146C51.998,46.168,52.191,46.278,52.426,46.137z" fill="#ffffff" style="fill: rgb(255, 255, 255);"></path><path d="M52.426,55.803l3.178-1.897c0.234-0.141,0.428-0.48,0.428-0.755v-4.146c0-0.273-0.193-0.383-0.428-0.242l-3.178,1.898   c-0.234,0.14-0.428,0.479-0.428,0.753v4.147C51.998,55.834,52.191,55.943,52.426,55.803z" fill="#ffffff" style="fill: rgb(255, 255, 255);"></path><path d="M52.426,65.469l3.178-1.898c0.234-0.14,0.428-0.479,0.428-0.754v-4.145c0-0.275-0.193-0.385-0.428-0.244l-3.178,1.898   c-0.234,0.141-0.428,0.479-0.428,0.753v4.146C51.998,65.499,52.191,65.609,52.426,65.469z" fill="#ffffff" style="fill: rgb(255, 255, 255);"></path><path d="M52.426,75.135l3.178-1.898c0.234-0.141,0.428-0.479,0.428-0.753v-4.147c0-0.274-0.193-0.383-0.428-0.242l-3.178,1.897   c-0.234,0.141-0.428,0.48-0.428,0.754v4.146C51.998,75.165,52.191,75.275,52.426,75.135z" fill="#ffffff" style="fill: rgb(255, 255, 255);"></path><path d="M26.135,72.448l3.175-1.896c0.235-0.142,0.428-0.48,0.428-0.755v-4.146c0-0.274-0.193-0.384-0.428-0.243l-3.175,1.897   c-0.235,0.141-0.428,0.48-0.428,0.754v4.146C25.708,72.481,25.9,72.59,26.135,72.448z" fill="#ffffff" style="fill: rgb(255, 255, 255);"></path><path d="M55.604,82.902c0.234-0.141,0.428-0.481,0.428-0.755v-4.146c0-0.274-0.193-0.383-0.428-0.242l-3.178,1.896   c-0.234,0.141-0.428,0.481-0.428,0.755v4.146c0,0.275,0.193,0.383,0.428,0.242L55.604,82.902z" fill="#ffffff" style="fill: rgb(255, 255, 255);"></path><path d="M81.783,53.818l-3.176,1.897c-0.236,0.142-0.428,0.48-0.428,0.756v4.146c0,0.273,0.191,0.383,0.428,0.241l3.176-1.897   c0.234-0.14,0.428-0.479,0.428-0.754v-4.146C82.211,53.787,82.018,53.678,81.783,53.818z" fill="#ffffff" style="fill: rgb(255, 255, 255);"></path><path d="M81.783,63.484l-3.176,1.898c-0.236,0.14-0.428,0.479-0.428,0.754v4.146c0,0.273,0.191,0.382,0.428,0.242l3.176-1.897   c0.234-0.142,0.428-0.48,0.428-0.755v-4.146C82.211,63.453,82.018,63.343,81.783,63.484z" fill="#ffffff" style="fill: rgb(255, 255, 255);"></path><path d="M87.037,22.986L55.094,4.543C53.688,3.732,51.881,3.285,50,3.285c-1.879,0-3.688,0.447-5.093,1.258L12.964,22.986   c-2.904,1.676-5.094,5.468-5.094,8.822v36.885c0,3.352,2.19,7.145,5.094,8.82l31.943,18.443c1.405,0.812,3.213,1.258,5.093,1.258   c1.881,0,3.688-0.446,5.094-1.258l31.943-18.443c2.902-1.676,5.094-5.469,5.094-8.82V31.808   C92.131,28.454,89.939,24.662,87.037,22.986z M33.953,82.725L15.955,72.333c-1.062-0.612-2.102-2.415-2.102-3.64V59.3l10.002-5.775   c0.029-0.002,0.065-0.002,0.094,0L33.953,59.3V82.725z M60.035,86.197l-7.598,4.386l-0.336,0.194   c-0.494,0.284-1.279,0.455-2.102,0.455c-0.822,0-1.607-0.171-2.102-0.455l-0.335-0.194l-7.628-4.403V35.184   c0.013-0.027,0.031-0.058,0.047-0.082l7.597-4.386l0.852-2.152l0.959-2.429c-0.86-0.261-1.487-1.06-1.487-2.006   c0-1.159,0.939-2.097,2.096-2.097c1.158,0,2.098,0.938,2.098,2.097c0,0.946-0.627,1.745-1.488,2.006l0.961,2.429l0.861,2.176   l7.557,4.363c0.018,0.024,0.035,0.055,0.047,0.082V86.197z M86.148,68.693c0,1.225-1.041,3.027-2.102,3.64l-17.855,10.31   l-0.174,0.1v-0.22V49.487l10.004-5.775c0.029-0.003,0.064-0.003,0.094,0l10.033,5.793V68.693z M86.148,42.598l-7.146-4.126   c-1.729-0.997-4.141-0.997-5.869,0l-7.115,4.108v-7.515c0-1.995-1.207-4.084-2.936-5.083l-5.463-3.155   c0.303-0.857,0.461-1.765,0.461-2.698c0-4.456-3.625-8.08-8.08-8.08s-8.079,3.624-8.079,8.08c0,0.927,0.156,1.83,0.457,2.683   l-5.49,3.169c-1.728,0.999-2.935,3.088-2.935,5.083v17.329l-7.116-4.108c-1.728-0.998-4.141-0.998-5.869,0l-7.116,4.108V31.808   c0-1.226,1.041-3.029,2.102-3.642L47.898,9.724c0.495-0.286,1.28-0.456,2.102-0.456c0.822,0,1.607,0.17,2.102,0.456l31.945,18.443   c1.061,0.613,2.102,2.416,2.102,3.642V42.598z" fill="#ffffff" style="fill: rgb(255, 255, 255);"></path></g></g></svg>