<svg xmlns="http://www.w3.org/2000/svg" version="1.1" xmlns:xlink="http://www.w3.org/1999/xlink" xmlns:svgjs="http://svgjs.com/svgjs" height="200.24846801757812" width="264.0899963378906"><defs id="SvgjsDefs1951"></defs><g id="SvgjsG1952" rel="mainfill" name="main_text" xmlns:name="main_text" transform="translate(-2.869999885559082,-54.06520690917969)" fill="#563979"><path d="M2.87 211.34C2.87 228.70 8.68 240.90 25.71 240.90C38.98 240.90 44.96 232.22 46.60 223.38C47.25 219.94 45.20 218.54 41.35 218.54C38.08 218.63 36.28 219.61 35.54 222.07C34.15 226.98 32.18 231.24 25.71 231.24C15.56 231.32 14.09 220.18 14.09 211.34C14.09 202.41 15.40 191.36 25.71 191.36C32.02 191.36 34.15 194.55 35.38 200.45C36.03 203.40 38.08 204.05 41.19 203.97C44.06 203.97 46.68 202.58 46.43 200.04C45.37 189.72 39.39 181.78 26.20 181.78C8.84 181.78 2.87 193.90 2.87 211.34ZM65.59 200.69C65.59 197.58 62.81 196.76 60.11 196.76C57.32 196.76 54.62 197.58 54.62 200.69L54.62 236.81C54.62 239.92 57.32 240.74 60.11 240.74C62.81 240.74 65.59 239.92 65.59 236.81ZM60.11 182.10C55.36 182.10 54.13 184.23 54.13 187.51C54.13 190.70 55.03 193.24 60.11 193.24C65.10 193.24 66.09 190.70 66.09 187.51C66.09 184.23 64.77 182.10 60.11 182.10ZM79.19 190.29L79.19 197.58L76.57 197.58C73.46 197.58 72.64 199.79 72.64 202.00C72.64 204.21 73.46 206.43 76.57 206.43L79.19 206.43L79.19 226.08C79.19 234.84 82.54 240.74 93.35 240.74C95.32 240.74 97.53 240.49 99.09 239.84C101.05 238.94 101.54 237.30 101.54 235.25C101.54 231.97 100.48 230.17 96.88 230.58C91.88 231.16 90.16 229.19 90.16 225.42L90.16 206.43L94.75 206.43C97.86 206.43 98.68 204.21 98.68 202.00C98.68 199.79 97.86 197.58 94.75 197.58L90.16 197.58L90.16 190.29C90.16 187.18 87.46 186.36 84.67 186.36C81.97 186.36 79.19 187.18 79.19 190.29ZM140.28 202.82C141.59 199.06 140.60 197.50 137.08 197.17C134.22 196.84 131.35 196.93 130.53 199.46L122.83 221.98L114.73 199.46C113.83 196.93 110.96 196.84 108.09 197.17C104.57 197.50 103.18 199.30 104.57 203.07L117.68 237.22L116.45 240.82C115.63 243.19 113.25 244.67 110.71 244.34C107.36 243.93 106.21 245.81 106.21 248.93C106.21 251.63 107.03 253.59 109.57 254.00C117.18 255.23 122.67 252.94 125.29 245.40ZM153.54 228.45C148.63 228.45 147.40 230.83 147.40 234.60C147.40 238.44 148.38 241.06 153.54 241.06C158.62 241.06 159.77 238.44 159.77 234.60C159.77 230.83 158.62 228.45 153.54 228.45ZM181.88 200.69C181.88 197.58 179.09 196.76 176.39 196.76C173.61 196.76 170.90 197.58 170.90 200.69L170.90 236.81C170.90 239.92 173.61 240.74 176.39 240.74C179.09 240.74 181.88 239.92 181.88 236.81ZM176.39 182.10C171.64 182.10 170.41 184.23 170.41 187.51C170.41 190.70 171.31 193.24 176.39 193.24C181.39 193.24 182.37 190.70 182.37 187.51C182.37 184.23 181.06 182.10 176.39 182.10ZM194.49 225.10C190.72 225.75 189.90 228.21 191.13 231.16C194.08 238.44 200.79 241.06 208.16 241.06C216.68 241.06 224.54 236.23 224.54 226.73C224.54 217.64 217.42 214.94 209.15 213.39C206.77 212.98 201.04 212.08 201.04 208.64C201.04 206.02 203.50 204.95 206.77 204.95C209.39 204.95 211.11 206.18 212.50 208.23C214.22 210.68 217.17 210.52 219.06 210.27C222.09 209.86 223.31 208.55 222.33 205.61C220.04 198.97 213.81 196.43 206.85 196.43C198.99 196.43 190.80 200.94 190.80 209.54C190.80 218.22 197.93 221.00 204.97 222.48C211.03 223.70 214.06 224.60 214.06 227.80C213.90 230.91 210.70 232.30 208.08 232.30C204.81 232.30 202.02 230.99 200.30 227.63C199.48 225.91 197.93 224.60 194.49 225.10ZM229.46 218.79C229.46 231.73 234.37 240.82 248.21 240.82C262.05 240.82 266.96 231.73 266.96 218.79C266.96 205.85 262.05 196.76 248.21 196.76C234.37 196.76 229.46 205.85 229.46 218.79ZM256.40 218.79C256.40 224.85 255.41 232.38 248.21 232.38C241.08 232.38 240.10 224.85 240.10 218.79C240.10 212.73 240.92 205.20 248.21 205.20C255.58 205.20 256.40 212.73 256.40 218.79Z" fill="#563979" style="fill: rgb(86, 57, 121);"></path></g><g id="SvgjsG1953" rel="mainfill" name="symbol" xmlns:name="symbol_mainfill" transform="translate(72.04439735412598,-3.942000102996826) scale(1.2)" fill="#563979"><g fill="#563979"><path fill="#563979" d="M66.018,82.742l0.174-0.1c-0.064-0.033-0.121-0.071-0.174-0.12V82.742z" style="fill: rgb(86, 57, 121);"></path><path d="M52.426,46.137l3.178-1.896c0.234-0.141,0.428-0.481,0.428-0.755v-4.146c0-0.274-0.193-0.383-0.428-0.243l-3.178,1.897   c-0.234,0.141-0.428,0.48-0.428,0.755v4.146C51.998,46.168,52.191,46.278,52.426,46.137z" fill="#563979" style="fill: rgb(86, 57, 121);"></path><path d="M52.426,55.803l3.178-1.897c0.234-0.141,0.428-0.48,0.428-0.755v-4.146c0-0.273-0.193-0.383-0.428-0.242l-3.178,1.898   c-0.234,0.14-0.428,0.479-0.428,0.753v4.147C51.998,55.834,52.191,55.943,52.426,55.803z" fill="#563979" style="fill: rgb(86, 57, 121);"></path><path d="M52.426,65.469l3.178-1.898c0.234-0.14,0.428-0.479,0.428-0.754v-4.145c0-0.275-0.193-0.385-0.428-0.244l-3.178,1.898   c-0.234,0.141-0.428,0.479-0.428,0.753v4.146C51.998,65.499,52.191,65.609,52.426,65.469z" fill="#563979" style="fill: rgb(86, 57, 121);"></path><path d="M52.426,75.135l3.178-1.898c0.234-0.141,0.428-0.479,0.428-0.753v-4.147c0-0.274-0.193-0.383-0.428-0.242l-3.178,1.897   c-0.234,0.141-0.428,0.48-0.428,0.754v4.146C51.998,75.165,52.191,75.275,52.426,75.135z" fill="#563979" style="fill: rgb(86, 57, 121);"></path><path d="M26.135,72.448l3.175-1.896c0.235-0.142,0.428-0.48,0.428-0.755v-4.146c0-0.274-0.193-0.384-0.428-0.243l-3.175,1.897   c-0.235,0.141-0.428,0.48-0.428,0.754v4.146C25.708,72.481,25.9,72.59,26.135,72.448z" fill="#563979" style="fill: rgb(86, 57, 121);"></path><path d="M55.604,82.902c0.234-0.141,0.428-0.481,0.428-0.755v-4.146c0-0.274-0.193-0.383-0.428-0.242l-3.178,1.896   c-0.234,0.141-0.428,0.481-0.428,0.755v4.146c0,0.275,0.193,0.383,0.428,0.242L55.604,82.902z" fill="#563979" style="fill: rgb(86, 57, 121);"></path><path d="M81.783,53.818l-3.176,1.897c-0.236,0.142-0.428,0.48-0.428,0.756v4.146c0,0.273,0.191,0.383,0.428,0.241l3.176-1.897   c0.234-0.14,0.428-0.479,0.428-0.754v-4.146C82.211,53.787,82.018,53.678,81.783,53.818z" fill="#563979" style="fill: rgb(86, 57, 121);"></path><path d="M81.783,63.484l-3.176,1.898c-0.236,0.14-0.428,0.479-0.428,0.754v4.146c0,0.273,0.191,0.382,0.428,0.242l3.176-1.897   c0.234-0.142,0.428-0.48,0.428-0.755v-4.146C82.211,63.453,82.018,63.343,81.783,63.484z" fill="#563979" style="fill: rgb(86, 57, 121);"></path><path d="M87.037,22.986L55.094,4.543C53.688,3.732,51.881,3.285,50,3.285c-1.879,0-3.688,0.447-5.093,1.258L12.964,22.986   c-2.904,1.676-5.094,5.468-5.094,8.822v36.885c0,3.352,2.19,7.145,5.094,8.82l31.943,18.443c1.405,0.812,3.213,1.258,5.093,1.258   c1.881,0,3.688-0.446,5.094-1.258l31.943-18.443c2.902-1.676,5.094-5.469,5.094-8.82V31.808   C92.131,28.454,89.939,24.662,87.037,22.986z M33.953,82.725L15.955,72.333c-1.062-0.612-2.102-2.415-2.102-3.64V59.3l10.002-5.775   c0.029-0.002,0.065-0.002,0.094,0L33.953,59.3V82.725z M60.035,86.197l-7.598,4.386l-0.336,0.194   c-0.494,0.284-1.279,0.455-2.102,0.455c-0.822,0-1.607-0.171-2.102-0.455l-0.335-0.194l-7.628-4.403V35.184   c0.013-0.027,0.031-0.058,0.047-0.082l7.597-4.386l0.852-2.152l0.959-2.429c-0.86-0.261-1.487-1.06-1.487-2.006   c0-1.159,0.939-2.097,2.096-2.097c1.158,0,2.098,0.938,2.098,2.097c0,0.946-0.627,1.745-1.488,2.006l0.961,2.429l0.861,2.176   l7.557,4.363c0.018,0.024,0.035,0.055,0.047,0.082V86.197z M86.148,68.693c0,1.225-1.041,3.027-2.102,3.64l-17.855,10.31   l-0.174,0.1v-0.22V49.487l10.004-5.775c0.029-0.003,0.064-0.003,0.094,0l10.033,5.793V68.693z M86.148,42.598l-7.146-4.126   c-1.729-0.997-4.141-0.997-5.869,0l-7.115,4.108v-7.515c0-1.995-1.207-4.084-2.936-5.083l-5.463-3.155   c0.303-0.857,0.461-1.765,0.461-2.698c0-4.456-3.625-8.08-8.08-8.08s-8.079,3.624-8.079,8.08c0,0.927,0.156,1.83,0.457,2.683   l-5.49,3.169c-1.728,0.999-2.935,3.088-2.935,5.083v17.329l-7.116-4.108c-1.728-0.998-4.141-0.998-5.869,0l-7.116,4.108V31.808   c0-1.226,1.041-3.029,2.102-3.642L47.898,9.724c0.495-0.286,1.28-0.456,2.102-0.456c0.822,0,1.607,0.17,2.102,0.456l31.945,18.443   c1.061,0.613,2.102,2.416,2.102,3.642V42.598z" fill="#563979" style="fill: rgb(86, 57, 121);"></path></g></g></svg>